<svg width="86" height="86" viewBox="0 0 86 86" fill="none" xmlns="http://www.w3.org/2000/svg">
<g filter="url(#filter0_d_139_1392)">
<circle cx="43" cy="39" r="28" fill="white"/>
</g>
<g clip-path="url(#clip0_139_1392)">
<path d="M54 35C54 36.1 53.1 37 52 37C51.82 37 51.65 36.98 51.49 36.93L47.93 40.48C47.98 40.64 48 40.82 48 41C48 42.1 47.1 43 46 43C44.9 43 44 42.1 44 41C44 40.82 44.02 40.64 44.07 40.48L41.52 37.93C41.36 37.98 41.18 38 41 38C40.82 38 40.64 37.98 40.48 37.93L35.93 42.49C35.98 42.65 36 42.82 36 43C36 44.1 35.1 45 34 45C32.9 45 32 44.1 32 43C32 41.9 32.9 41 34 41C34.18 41 34.35 41.02 34.51 41.07L39.07 36.52C39.02 36.36 39 36.18 39 36C39 34.9 39.9 34 41 34C42.1 34 43 34.9 43 36C43 36.18 42.98 36.36 42.93 36.52L45.48 39.07C45.64 39.02 45.82 39 46 39C46.18 39 46.36 39.02 46.52 39.07L50.07 35.51C50.02 35.35 50 35.18 50 35C50 33.9 50.9 33 52 33C53.1 33 54 33.9 54 35Z" fill="#BD73DF"/>
</g>
<defs>
<filter id="filter0_d_139_1392" x="0" y="0" width="86" height="86" filterUnits="userSpaceOnUse" color-interpolation-filters="sRGB">
<feFlood flood-opacity="0" result="BackgroundImageFix"/>
<feColorMatrix in="SourceAlpha" type="matrix" values="0 0 0 0 0 0 0 0 0 0 0 0 0 0 0 0 0 0 127 0" result="hardAlpha"/>
<feOffset dy="4"/>
<feGaussianBlur stdDeviation="7.5"/>
<feComposite in2="hardAlpha" operator="out"/>
<feColorMatrix type="matrix" values="0 0 0 0 0 0 0 0 0 0 0 0 0 0 0 0 0 0 0.15 0"/>
<feBlend mode="normal" in2="BackgroundImageFix" result="effect1_dropShadow_139_1392"/>
<feBlend mode="normal" in="SourceGraphic" in2="effect1_dropShadow_139_1392" result="shape"/>
</filter>
<clipPath id="clip0_139_1392">
<rect width="24" height="24" fill="white" transform="translate(31 27)"/>
</clipPath>
</defs>
</svg>
