<svg width="86" height="86" viewBox="0 0 86 86" fill="none" xmlns="http://www.w3.org/2000/svg">
<g filter="url(#filter0_d_139_1389)">
<circle cx="43" cy="39" r="28" fill="white"/>
</g>
<g clip-path="url(#clip0_139_1389)">
<path d="M46.5 41H45.71L45.43 40.73C46.41 39.59 47 38.11 47 36.5C47 32.91 44.09 30 40.5 30C36.91 30 34 32.91 34 36.5C34 40.09 36.91 43 40.5 43C42.11 43 43.59 42.41 44.73 41.43L45 41.71V42.5L50 47.49L51.49 46L46.5 41ZM40.5 41C38.01 41 36 38.99 36 36.5C36 34.01 38.01 32 40.5 32C42.99 32 45 34.01 45 36.5C45 38.99 42.99 41 40.5 41Z" fill="#BD73DF"/>
</g>
<defs>
<filter id="filter0_d_139_1389" x="0" y="0" width="86" height="86" filterUnits="userSpaceOnUse" color-interpolation-filters="sRGB">
<feFlood flood-opacity="0" result="BackgroundImageFix"/>
<feColorMatrix in="SourceAlpha" type="matrix" values="0 0 0 0 0 0 0 0 0 0 0 0 0 0 0 0 0 0 127 0" result="hardAlpha"/>
<feOffset dy="4"/>
<feGaussianBlur stdDeviation="7.5"/>
<feComposite in2="hardAlpha" operator="out"/>
<feColorMatrix type="matrix" values="0 0 0 0 0 0 0 0 0 0 0 0 0 0 0 0 0 0 0.15 0"/>
<feBlend mode="normal" in2="BackgroundImageFix" result="effect1_dropShadow_139_1389"/>
<feBlend mode="normal" in="SourceGraphic" in2="effect1_dropShadow_139_1389" result="shape"/>
</filter>
<clipPath id="clip0_139_1389">
<rect width="24" height="24" fill="white" transform="translate(31 27)"/>
</clipPath>
</defs>
</svg>
